<svg width="56" height="56" viewBox="0 0 56 56" fill="none" xmlns="http://www.w3.org/2000/svg">
<g id="package-out-of-stock">
<rect width="56" height="56" rx="8" fill="#FFF9C5"/>
<path id="Vector" d="M28 44C26.6363 44 25.3337 43.4772 22.7282 42.4313C16.2427 39.8283 13 38.5268 13 36.3374V21.0378M28 44C29.3637 44 30.6663 43.4772 33.2718 42.4313C39.7573 39.8283 43 38.5268 43 36.3374V21.0378M28 44V28.164M13 21.0378C13 22.0105 14.3359 22.6248 17.0079 23.8532L21.8765 26.0917C24.8813 27.4733 26.3838 28.164 28 28.164M13 21.0378C13 20.0651 14.3359 19.4509 17.0079 18.2224L19.6667 17M43 21.0378C43 22.0105 41.664 22.6248 38.9922 23.8532L34.1235 26.0917C31.1187 27.4733 29.6162 28.164 28 28.164M43 21.0378C43 20.0651 41.664 19.4509 38.9922 18.2224L36.3333 17M18 29.7477L21.3333 31.3313" stroke="#ECD37A" stroke-width="1.8" stroke-linecap="round" stroke-linejoin="round"/>
<path id="Vector_2" d="M24 12L28 15M28 15L32 18M28 15L24 18M28 15L32 12" stroke="#ECD37A" stroke-width="1.8" stroke-linecap="round"/>
</g>
</svg>
