<svg width="32" height="32" viewBox="0 0 32 32" fill="none" xmlns="http://www.w3.org/2000/svg">
<g id="package-out-of-stock">
<path id="Vector" d="M16 29.3334C14.9091 29.3334 13.8669 28.8945 11.7826 28.0165C6.59419 25.8313 4 24.7386 4 22.9006V10.0565M16 29.3334C17.0909 29.3334 18.1331 28.8945 20.2175 28.0165C25.4059 25.8313 28 24.7386 28 22.9006V10.0565M16 29.3334V16.039M4 10.0565C4 10.8731 5.06876 11.3888 7.20629 12.4201L11.1012 14.2993C13.5051 15.4591 14.7071 16.039 16 16.039M4 10.0565C4 9.23995 5.06876 8.72431 7.20629 7.693L15.1392 3.91044C15.6837 3.65081 16.3163 3.65082 16.8608 3.91044L24.7937 7.693C26.9312 8.72429 28 9.23995 28 10.0565M28 10.0565C28 10.8731 26.9312 11.3888 24.7937 12.4201L20.8988 14.2993C18.4949 15.4591 17.2929 16.039 16 16.039" stroke="#58BE62" stroke-width="1.8" stroke-linecap="round" stroke-linejoin="round"/>
</g>
</svg>
