<svg width="32" height="32" viewBox="0 0 32 32" fill="none" xmlns="http://www.w3.org/2000/svg">
<g id="medicine-bottle-01">
<path id="Vector" d="M10 9H22V4.00012L10 4V9Z" stroke="#ABABAB" stroke-width="1.8" stroke-linejoin="round"/>
<path id="Vector_2" d="M11.3333 9C11.5258 9.39171 11.622 9.58759 11.6904 9.77864C12.0475 10.7755 11.9494 11.8824 11.4229 12.7982C11.322 12.9737 11.1929 13.1489 10.9348 13.4993L10.4641 14.1381C9.939 14.8507 9.67647 15.2069 9.4862 15.5973C9.294 15.9916 9.15658 16.4112 9.0779 16.844C9 17.2726 9 17.7179 9 18.6087V27C9 27.5523 9.44772 28 10 28H22C22.5523 28 23 27.5523 23 27V18.6087C23 17.7179 23 17.2726 22.9221 16.844C22.8434 16.4112 22.706 15.9916 22.5138 15.5973C22.3236 15.2069 22.0609 14.8507 21.5359 14.1381L21.0652 13.4993C20.8071 13.1489 20.678 12.9737 20.5771 12.7982C20.0505 11.8824 19.9525 10.7755 20.3095 9.77864C20.378 9.58759 20.4743 9.39172 20.6667 9" stroke="#ABABAB" stroke-width="1.8" stroke-linejoin="round"/>
<path id="Vector_3" d="M16 19V21M16 21V23M16 21H14M16 21H18" stroke="#ABABAB" stroke-width="1.8" stroke-linecap="round"/>
</g>
</svg>
