<svg width="32" height="32" viewBox="0 0 32 32" fill="none" xmlns="http://www.w3.org/2000/svg">
<g id="time-management">
<path id="Vector" d="M2.6665 25.9998C2.6665 24.4285 2.6665 23.6428 3.25229 23.1546C3.83808 22.6665 4.78089 22.6665 6.6665 22.6665C8.55212 22.6665 9.49493 22.6665 10.0807 23.1546C10.6665 23.6428 10.6665 24.4285 10.6665 25.9998C10.6665 27.5712 10.6665 28.3569 10.0807 28.845C9.49493 29.3332 8.55212 29.3332 6.6665 29.3332C4.78089 29.3332 3.83808 29.3332 3.25229 28.845C2.6665 28.3569 2.6665 27.5712 2.6665 25.9998Z" stroke="#58BE62" stroke-width="1.8"/>
<path id="Vector_2" d="M21.3335 25.9998C21.3335 24.4285 21.3335 23.6428 21.9192 23.1546C22.5051 22.6665 23.4479 22.6665 25.3335 22.6665C27.2191 22.6665 28.1619 22.6665 28.7478 23.1546C29.3335 23.6428 29.3335 24.4285 29.3335 25.9998C29.3335 27.5712 29.3335 28.3569 28.7478 28.845C28.1619 29.3332 27.2191 29.3332 25.3335 29.3332C23.4479 29.3332 22.5051 29.3332 21.9192 28.845C21.3335 28.3569 21.3335 27.5712 21.3335 25.9998Z" stroke="#58BE62" stroke-width="1.8"/>
<path id="Vector_3" d="M25.3332 22.6665C25.3332 19.3572 24.3414 18.6665 19.5896 18.6665H12.4101C7.65822 18.6665 6.6665 19.3572 6.6665 22.6665" stroke="#58BE62" stroke-width="1.8" stroke-linecap="round" stroke-linejoin="round"/>
<path id="Vector_4" d="M22 8.6665C22 11.9802 19.3137 14.6665 16 14.6665C12.6863 14.6665 10 11.9802 10 8.6665C10 5.3528 12.6863 2.6665 16 2.6665C19.3137 2.6665 22 5.3528 22 8.6665Z" stroke="#58BE62" stroke-width="1.8" stroke-linecap="round"/>
</g>
</svg>
