<svg width="32" height="32" viewBox="0 0 32 32" fill="none" xmlns="http://www.w3.org/2000/svg">
<g id="notification-01">
<path id="Vector" d="M7.63801 15.3456C7.5482 17.1404 7.65144 19.051 6.12705 20.2537C5.41756 20.8135 5 21.6919 5 22.6249C5 23.9082 5.95553 25 7.2 25H24.8C26.0445 25 27 23.9082 27 22.6249C27 21.6919 26.5825 20.8135 25.873 20.2537C24.3485 19.051 24.4518 17.1404 24.362 15.3456C24.1279 10.6672 20.4535 7 16 7C11.5464 7 7.87208 10.6671 7.63801 15.3456Z" stroke="#58BE62" stroke-width="1.8" stroke-linecap="round" stroke-linejoin="round"/>
<path id="Vector_2" d="M14 5.125C14 5.95343 14.8955 7 16 7C17.1045 7 18 5.95343 18 5.125C18 4.29657 17.1045 4 16 4C14.8955 4 14 4.29657 14 5.125Z" stroke="#58BE62" stroke-width="1.8"/>
<path id="Vector_3" d="M20 26C20 27.6569 18.2092 29 16 29C13.7908 29 12 27.6569 12 26" stroke="#58BE62" stroke-width="2" stroke-linecap="round" stroke-linejoin="round"/>
</g>
</svg>
