<svg width="32" height="32" viewBox="0 0 32 32" fill="none" xmlns="http://www.w3.org/2000/svg">
<g id="ion:calendar">
<path id="Vector" d="M24 11.4285C24 10.8223 23.7592 10.2409 23.3305 9.81228C22.9019 9.38363 22.3205 9.14281 21.7143 9.14281H21.1429V8.58745C21.1429 8.27995 20.9064 8.01602 20.5989 8.00066C20.5217 7.99694 20.4445 8.00894 20.372 8.03594C20.2995 8.06294 20.2332 8.10438 20.1772 8.15774C20.1212 8.2111 20.0766 8.27528 20.0462 8.34638C20.0157 8.41748 20 8.49403 20 8.57138V9.14281H12V8.58745C12 8.27995 11.7636 8.01602 11.4561 8.00066C11.3788 7.99694 11.3016 8.00894 11.2291 8.03594C11.1566 8.06294 11.0904 8.10438 11.0344 8.15774C10.9784 8.2111 10.9338 8.27528 10.9033 8.34638C10.8729 8.41748 10.8572 8.49403 10.8571 8.57138V9.14281H10.2857C9.67951 9.14281 9.09812 9.38363 8.66947 9.81228C8.24082 10.2409 8 10.8223 8 11.4285V11.8571C8 11.895 8.01505 11.9313 8.04184 11.9581C8.06863 11.9849 8.10497 12 8.14286 12H23.8571C23.895 12 23.9314 11.9849 23.9582 11.9581C23.985 11.9313 24 11.895 24 11.8571V11.4285ZM8 21.7143C8 22.3205 8.24082 22.9019 8.66947 23.3305C9.09812 23.7592 9.67951 24 10.2857 24H21.7143C22.3205 24 22.9019 23.7592 23.3305 23.3305C23.7592 22.9019 24 22.3205 24 21.7143V13.25C24 13.2215 23.9887 13.1943 23.9686 13.1742C23.9485 13.1541 23.9213 13.1428 23.8929 13.1428H8.10714C8.07873 13.1428 8.05147 13.1541 8.03138 13.1742C8.01129 13.1943 8 13.2215 8 13.25V21.7143ZM20.2857 14.2857C20.4552 14.2857 20.621 14.336 20.7619 14.4301C20.9029 14.5243 21.0127 14.6582 21.0776 14.8148C21.1425 14.9714 21.1595 15.1438 21.1264 15.31C21.0933 15.4763 21.0117 15.629 20.8918 15.7489C20.7719 15.8688 20.6192 15.9504 20.4529 15.9835C20.2867 16.0166 20.1143 15.9996 19.9577 15.9347C19.8011 15.8699 19.6672 15.76 19.573 15.619C19.4788 15.4781 19.4286 15.3124 19.4286 15.1428C19.4286 14.9155 19.5189 14.6975 19.6796 14.5367C19.8404 14.376 20.0584 14.2857 20.2857 14.2857ZM20.2857 17.1428C20.4552 17.1428 20.621 17.1931 20.7619 17.2873C20.9029 17.3815 21.0127 17.5153 21.0776 17.672C21.1425 17.8286 21.1595 18.0009 21.1264 18.1672C21.0933 18.3335 21.0117 18.4862 20.8918 18.6061C20.7719 18.7259 20.6192 18.8076 20.4529 18.8407C20.2867 18.8737 20.1143 18.8568 19.9577 18.7919C19.8011 18.727 19.6672 18.6171 19.573 18.4762C19.4788 18.3352 19.4286 18.1695 19.4286 18C19.4286 17.7727 19.5189 17.5546 19.6796 17.3939C19.8404 17.2331 20.0584 17.1428 20.2857 17.1428ZM17.4286 14.2857C17.5981 14.2857 17.7638 14.336 17.9048 14.4301C18.0457 14.5243 18.1556 14.6582 18.2205 14.8148C18.2853 14.9714 18.3023 15.1438 18.2692 15.31C18.2362 15.4763 18.1545 15.629 18.0347 15.7489C17.9148 15.8688 17.7621 15.9504 17.5958 15.9835C17.4295 16.0166 17.2572 15.9996 17.1006 15.9347C16.9439 15.8699 16.8101 15.76 16.7159 15.619C16.6217 15.4781 16.5714 15.3124 16.5714 15.1428C16.5714 14.9155 16.6617 14.6975 16.8225 14.5367C16.9832 14.376 17.2012 14.2857 17.4286 14.2857ZM17.4286 17.1428C17.5981 17.1428 17.7638 17.1931 17.9048 17.2873C18.0457 17.3815 18.1556 17.5153 18.2205 17.672C18.2853 17.8286 18.3023 18.0009 18.2692 18.1672C18.2362 18.3335 18.1545 18.4862 18.0347 18.6061C17.9148 18.7259 17.7621 18.8076 17.5958 18.8407C17.4295 18.8737 17.2572 18.8568 17.1006 18.7919C16.9439 18.727 16.8101 18.6171 16.7159 18.4762C16.6217 18.3352 16.5714 18.1695 16.5714 18C16.5714 17.7727 16.6617 17.5546 16.8225 17.3939C16.9832 17.2331 17.2012 17.1428 17.4286 17.1428ZM17.4286 20C17.5981 20 17.7638 20.0503 17.9048 20.1444C18.0457 20.2386 18.1556 20.3725 18.2205 20.5291C18.2853 20.6857 18.3023 20.8581 18.2692 21.0244C18.2362 21.1906 18.1545 21.3434 18.0347 21.4632C17.9148 21.5831 17.7621 21.6647 17.5958 21.6978C17.4295 21.7309 17.2572 21.7139 17.1006 21.649C16.9439 21.5842 16.8101 21.4743 16.7159 21.3333C16.6217 21.1924 16.5714 21.0267 16.5714 20.8571C16.5714 20.6298 16.6617 20.4118 16.8225 20.251C16.9832 20.0903 17.2012 20 17.4286 20ZM14.5714 17.1428C14.741 17.1428 14.9067 17.1931 15.0476 17.2873C15.1886 17.3815 15.2985 17.5153 15.3633 17.672C15.4282 17.8286 15.4452 18.0009 15.4121 18.1672C15.379 18.3335 15.2974 18.4862 15.1775 18.6061C15.0576 18.7259 14.9049 18.8076 14.7386 18.8407C14.5724 18.8737 14.4 18.8568 14.2434 18.7919C14.0868 18.727 13.9529 18.6171 13.8587 18.4762C13.7646 18.3352 13.7143 18.1695 13.7143 18C13.7143 17.7727 13.8046 17.5546 13.9653 17.3939C14.1261 17.2331 14.3441 17.1428 14.5714 17.1428ZM14.5714 20C14.741 20 14.9067 20.0503 15.0476 20.1444C15.1886 20.2386 15.2985 20.3725 15.3633 20.5291C15.4282 20.6857 15.4452 20.8581 15.4121 21.0244C15.379 21.1906 15.2974 21.3434 15.1775 21.4632C15.0576 21.5831 14.9049 21.6647 14.7386 21.6978C14.5724 21.7309 14.4 21.7139 14.2434 21.649C14.0868 21.5842 13.9529 21.4743 13.8587 21.3333C13.7646 21.1924 13.7143 21.0267 13.7143 20.8571C13.7143 20.6298 13.8046 20.4118 13.9653 20.251C14.1261 20.0903 14.3441 20 14.5714 20ZM11.7143 17.1428C11.8838 17.1428 12.0495 17.1931 12.1905 17.2873C12.3314 17.3815 12.4413 17.5153 12.5062 17.672C12.5711 17.8286 12.588 18.0009 12.555 18.1672C12.5219 18.3335 12.4403 18.4862 12.3204 18.6061C12.2005 18.7259 12.0478 18.8076 11.8815 18.8407C11.7152 18.8737 11.5429 18.8568 11.3863 18.7919C11.2296 18.727 11.0958 18.6171 11.0016 18.4762C10.9074 18.3352 10.8571 18.1695 10.8571 18C10.8571 17.7727 10.9474 17.5546 11.1082 17.3939C11.2689 17.2331 11.487 17.1428 11.7143 17.1428ZM11.7143 20C11.8838 20 12.0495 20.0503 12.1905 20.1444C12.3314 20.2386 12.4413 20.3725 12.5062 20.5291C12.5711 20.6857 12.588 20.8581 12.555 21.0244C12.5219 21.1906 12.4403 21.3434 12.3204 21.4632C12.2005 21.5831 12.0478 21.6647 11.8815 21.6978C11.7152 21.7309 11.5429 21.7139 11.3863 21.649C11.2296 21.5842 11.0958 21.4743 11.0016 21.3333C10.9074 21.1924 10.8571 21.0267 10.8571 20.8571C10.8571 20.6298 10.9474 20.4118 11.1082 20.251C11.2689 20.0903 11.487 20 11.7143 20Z" fill="#ABABAB"/>
</g>
</svg>
