<svg width="32" height="32" viewBox="0 0 32 32" fill="none" xmlns="http://www.w3.org/2000/svg">
<g id="book-02">
<path id="Vector" d="M26 21.9143V13.6C26 9.07451 26 6.81178 24.6216 5.40588C23.2434 4 21.0249 4 16.5882 4H15.4118C10.975 4 8.75665 4 7.37832 5.40588C6 6.81178 6 9.07451 6 13.6V25" stroke="#58BE62" stroke-width="2" stroke-linecap="round"/>
<path id="Vector_2" d="M26 22H8.94118C7.31681 22 6 23.3432 6 25C6 26.6568 7.31681 28 8.94118 28H26" stroke="#58BE62" stroke-width="2" stroke-linecap="round"/>
<path id="Vector_3" d="M26 28C24.3432 28 23 26.6568 23 25C23 23.3432 24.3432 22 26 22" stroke="#58BE62" stroke-width="2" stroke-linecap="round"/>
<path id="Vector_4" d="M20 10H12" stroke="#58BE62" stroke-width="2" stroke-linecap="round" stroke-linejoin="round"/>
<path id="Vector_5" d="M16 15H12" stroke="#58BE62" stroke-width="2" stroke-linecap="round" stroke-linejoin="round"/>
</g>
</svg>
