<svg width="32" height="32" viewBox="0 0 32 32" fill="none" xmlns="http://www.w3.org/2000/svg">
<g id="building-06">
<path id="Vector" d="M15.75 5H9.25C6.56117 5 6 5.5698 6 8.3V27H19V8.3C19 5.5698 18.4388 5 15.75 5Z" stroke="#58BE62" stroke-width="1.8" stroke-linejoin="round"/>
<path id="Vector_2" d="M22.5 12H19V27H26V15.2143C26 12.555 25.3957 12 22.5 12Z" stroke="#58BE62" stroke-width="1.8" stroke-linejoin="round"/>
<path id="Vector_3" d="M15 27V22.3333C15 21.2334 15 20.6834 14.7071 20.3417C14.4142 20 13.9428 20 13 20H12C11.0572 20 10.5858 20 10.2929 20.3417C10 20.6834 10 21.2334 10 22.3333V27" stroke="#58BE62" stroke-width="1.8" stroke-linejoin="round"/>
</g>
</svg>
