<svg width="32" height="32" viewBox="0 0 32 32" fill="none" xmlns="http://www.w3.org/2000/svg">
<g id="money-receive-square">
<path id="Vector" d="M17.0526 6C17.0526 6 16.7199 6 16 6C11.286 6 8.92894 6 7.46446 7.46447C6 8.92894 6 11.286 6 16C6 20.714 6 23.0711 7.46446 24.5356C8.92894 26 11.286 26 16 26C20.714 26 23.0711 26 24.5356 24.5356C26 23.0711 26 20.714 26 16C26 15.2801 26 14.9474 26 14.9474" stroke="#58BE62" stroke-width="2" stroke-linecap="round"/>
<path id="Vector_2" d="M20.7281 10.0834C20.4111 10.3975 20.4087 10.9092 20.7229 11.2263C21.0371 11.5434 21.5488 11.5458 21.8659 11.2316L20.7281 10.0834ZM26.7607 6.38234C27.0777 6.06819 27.0801 5.55646 26.7659 5.23938C26.4518 4.92229 25.94 4.91992 25.6229 5.23407L26.7607 6.38234ZM25.642 11.9999C26.0884 12.006 26.4551 11.6492 26.4613 11.2029C26.4674 10.7565 26.1105 10.3898 25.6641 10.3837L25.642 11.9999ZM21.6163 6.33594C21.6102 5.88962 21.2434 5.53279 20.7971 5.53892C20.3507 5.54506 19.9939 5.91185 20.0001 6.35817L21.6163 6.33594ZM21.8659 11.2316L26.7607 6.38234L25.6229 5.23407L20.7281 10.0834L21.8659 11.2316ZM21.9916 10.1558C21.9372 10.1462 21.9075 10.1258 21.8909 10.1091C21.8742 10.0925 21.8539 10.0629 21.8442 10.0083L20.2525 10.2899C20.3862 11.0457 20.9536 11.6136 21.7097 11.7474L21.9916 10.1558ZM21.7097 11.7474C22.8032 11.9411 24.7403 11.9876 25.642 11.9999L25.6641 10.3837C24.7293 10.3709 22.9313 10.3222 21.9916 10.1558L21.7097 11.7474ZM20.0001 6.35817C20.0125 7.25993 20.059 9.19665 20.2525 10.2899L21.8442 10.0083C21.678 9.06858 21.6292 7.27074 21.6163 6.33594L20.0001 6.35817Z" fill="#58BE62"/>
</g>
</svg>
