<svg width="32" height="32" viewBox="0 0 32 32" fill="none" xmlns="http://www.w3.org/2000/svg">
<g id="time-management">
<path id="Vector" d="M2.66699 26.0001C2.66699 24.4287 2.66699 23.643 3.25278 23.1549C3.83857 22.6667 4.78138 22.6667 6.66699 22.6667C8.55261 22.6667 9.49542 22.6667 10.0812 23.1549C10.667 23.643 10.667 24.4287 10.667 26.0001C10.667 27.5714 10.667 28.3571 10.0812 28.8453C9.49542 29.3334 8.55261 29.3334 6.66699 29.3334C4.78138 29.3334 3.83857 29.3334 3.25278 28.8453C2.66699 28.3571 2.66699 27.5714 2.66699 26.0001Z" stroke="#ABABAB" stroke-width="1.8"/>
<path id="Vector_2" d="M21.333 26.0001C21.333 24.4287 21.333 23.643 21.9187 23.1549C22.5046 22.6667 23.4474 22.6667 25.333 22.6667C27.2186 22.6667 28.1614 22.6667 28.7473 23.1549C29.333 23.643 29.333 24.4287 29.333 26.0001C29.333 27.5714 29.333 28.3571 28.7473 28.8453C28.1614 29.3334 27.2186 29.3334 25.333 29.3334C23.4474 29.3334 22.5046 29.3334 21.9187 28.8453C21.333 28.3571 21.333 27.5714 21.333 26.0001Z" stroke="#ABABAB" stroke-width="1.8"/>
<path id="Vector_3" d="M25.3337 22.6667C25.3337 19.3574 24.3419 18.6667 19.5901 18.6667H12.4106C7.65871 18.6667 6.66699 19.3574 6.66699 22.6667" stroke="#ABABAB" stroke-width="1.8" stroke-linecap="round" stroke-linejoin="round"/>
<path id="Vector_4" d="M22 8.66675C22 11.9805 19.3137 14.6667 16 14.6667C12.6863 14.6667 10 11.9805 10 8.66675C10 5.35304 12.6863 2.66675 16 2.66675C19.3137 2.66675 22 5.35304 22 8.66675Z" stroke="#ABABAB" stroke-width="1.8" stroke-linecap="round"/>
</g>
</svg>
